<?xml version="1.0" encoding="UTF-8"?>
<svg id="Layer_1" data-name="Layer 1" xmlns="http://www.w3.org/2000/svg" viewBox="0 0 1297.08 1297.08">
  <defs>
    <style>
      .cls-1 {
        fill: #009cde;
      }
    </style>
  </defs>
  <path class="cls-1" d="M648.54,228.54c-256.4,0-464.5,208.1-464.5,464.5,0,100.3,31.8,193.2,85.9,269.2,5.3,7.5,13.9,11.9,23.1,11.9h711c9.2,0,17.8-4.4,23.1-11.9,54.1-76,85.9-168.9,85.9-269.2,0-256.4-208.1-464.5-464.5-464.5ZM942.54,917.54h-588c-31-57-48.6-122.3-48.6-191.6,0-33.1,4-65.3,11.5-96.1l64.8,26.8c11.2,4.6,24-.7,28.7-11.9,4.6-11.2-.7-24-11.9-28.7l-64.7-26.8c25.9-58.5,66.4-109.2,116.7-147.4l49.6,49.6c8.6,8.6,22.5,8.6,31.1,0,8.6-8.6,8.6-22.5,0-31.1l-49.6-49.6c50.5-33.9,110.1-55.2,174.4-60.1v70.1c0,12.1,9.8,22,22,22s22-9.8,22-22v-70.1c64.3,4.9,123.9,26.2,174.4,60.1l-49.6,49.6c-8.6,8.6-8.6,22.5,0,31.1,8.6,8.6,22.5,8.6,31.1,0l49.6-49.6c50.3,38.2,90.8,88.9,116.7,147.4l-64.7,26.8c-11.2,4.6-16.5,17.5-11.9,28.7,4.6,11.2,17.5,16.5,28.7,11.9l64.8-26.8c7.5,30.8,11.5,63,11.5,96.1,0,69.3-17.6,134.6-48.6,191.6ZM820.24,510.34c-8.6-8.6-22.5-8.6-31.1,0l-168.4,168.4c-32-13.2-69.9-6.8-95.7,18.9-33.5,33.5-33.5,87.8,0,121.3,33.5,33.5,87.8,33.5,121.3,0,25.7-25.7,32.1-63.6,18.9-95.7l154.9-154.9c8.6-8.6,8.6-22.5,0-31.1l.1.1Z"/>
</svg>
