<?xml version="1.0" encoding="UTF-8"?>
<svg id="Layer_1" data-name="Layer 1" xmlns="http://www.w3.org/2000/svg" viewBox="0 0 1297.08 1297.08">
  <defs>
    <style>
      .cls-1 {
        fill: #009cde;
      }
    </style>
  </defs>
  <path class="cls-1" d="M968.54,585.04h-60.5v-158.3c0-143.3-116.2-259.5-259.5-259.5s-259.5,116.2-259.5,259.5v158.3h-60.5c-30.6,0-55.4,24.8-55.4,55.4v434.6c0,30.6,24.8,55.4,55.4,55.4h640c30.6,0,55.4-24.8,55.4-55.4v-434.6c0-30.6-24.8-55.4-55.4-55.4ZM468.54,426.74c0-99.4,80.6-180,180-180s180,80.6,180,180v158.3h-360v-158.3ZM888.54,1050.64H408.54v-385.6h480v385.6ZM648.54,896.74c33.1,0,60-26.9,60-60s-26.9-60-60-60-60,26.9-60,60,26.9,60,60,60Z"/>
</svg>
